Before Spartacus struck down his first opponent in the arena, there were many gladiators who passed... See full summary »

Creator:
Steven S. DeKnight
Stars:
John Hannah, Manu Bennett and Peter Mensah 


S1, Ep1

Jan. 21, 2011
Past Transgressions 
A pre-Spartacus prequel about life in the House of Batiatus. In the opener, a younger Batiatus is placed in command of his father's gladiator-training school, which leads him to use one of the most accomplished fighters to curry favor with a nobleman.
 

 
S1, Ep2 

Jan. 28, 2011 
Missio 
A week has passed since he received his severe beating at the hands of Tullius' men and Batiatus has now recovered sufficiently to leave his bed. Tullius sends him a message to the effect that he acted hastily and offers a compromise. Batiatus is in no mood to compromise however and plans his own revenge. Quintillius Varis comes to Capua to select gladiators for his games and Gaia, who knows him, plots to have him come to Batiatus' house. Batiatus will seemingly go to any length to impress Varis but his blind enthusiasm does not sit well with the men. Doctore and Oenomaus settle their differences in the arena.
 

 
S1, Ep3 

Feb. 4, 2011 
Paterfamilias 
Batiatus is pleased with himself having arranged for Gannicus to appear in the primus of Quintillius Varis' games. He is not however prepared for the return of his father Titus who arrives home to find his son cavorting with Gaia and Lecretia. He treats his son with disdain and has heard of the mess he's made of things with Tullius. He laughs when he hears that Gannicus will represent the house in the games and sets out to undo everything they young Batiatus has managed to arrange. Titus arranges a peace of sorts with Tullius and for several of their gladiators to fight one another in the arena. One of those selected to fight is Crixus, not yet one of the brotherhood of gladiators. While father and son are away, Varis returns to the Batiatus home with a friend, Cossutius, expecting to again experience the pleasures of his previous visit.
 

 
S1, Ep4 

Feb. 11, 2011 
Beneath the Mask 
The younger Batiatus is having more than just a bit of difficulty accepting his father's ongoing - and seemingly permanent - presence at home. The patriarch refuses to take on the powerful Tullius and continually tells his son to learn his place. When Gaia sees someone she had once met in Rome, she introduces him to Lucretia and he immediately comments on what he has heard about the pleasures available at her home. Gaia again sees an opportunity to make gains for the House of Batiatus but the elder Batiatus would never allow such revelry in their so they convince him to leave for day or two. At the party, Gaia sees an opportunity to influence Tullius and Lucretia ensures that the occasion is the most elaborate yet. It all turns to tragedy for one of the guests.
 

 
S1, Ep5 

Feb. 18, 2011 
Reckoning 
Gaia's death strengthens Quintus Batiatus' resolve to get revenge against Tullius. The elder Batiatus invites Tullius to his home and is offered prime places in the forthcoming games, in return for Gannicus. In the arena, the elder Batiatus has decided to assess the skills of his gladiators, most of whom he is unfamiliar with, by having them fight one another. As for his father's ultimatum that he choose between his home and his wife, the younger Batiatus' attempts to gain time is not appreciated by Lucretia who believes she would have him leave. He convinces her otherwise and she pushes him to settle on his course while she has her own plan. Lucretia also has her own solution to her husband's desire for a son. Melitta and Gannicus increasingly lust after one another. Gannicus finds a solution to their situation but fate presents a different outcome.
 

 
S1, Ep6 

Feb. 25, 2011 
The Bitter End 
Batiatus mourns the death of his father and blames Tullius for all that has befallen them. Gannicus pushes Batiatus to complete his sale to Tullius so that he may seek revenge for the House of Batiatus but Solonius counsels caution and a more sensible, if final, solution. Solonius protects his own position as well, however. Naevia replaces Melitta and Lucretia promises that no man will ever touch her as happened to Diona,who makes an unexpected return. The new arena is complete and the games begin. The gladiators of the House of Batiatus emerge triumphant with Crixus and Gannicus wanting to face each other in the primus.

Media info: averange

General
Unique ID                        : 253123616686234661866634316899488964189 (0xBE6DD5D6454D5D618873A832EA791E5D)
Complete name                    : E:\torrent2\Spartacus Gods of the Arena (2011)blurayrip.MKV.1080p.AVC.AC3 5.1.ACB-team\S1,ep1.Past Transgressions.mkv
Format                           : Matroska
Format version                   : Version 2
File size                        : 5.15 GiB
Duration                         : 52mn 48s
Overall bit rate mode            : Variable
Overall bit rate                 : 14.0 Mbps
Movie name                       : movie
Encoded date                     : UTC 2012-01-26 19:09:27
Writing application              : mkvmerge v3.2.0 ('Beginnings') built on Feb 12 2010 16:46:17
Writing library                  : libebml v0.7.9 + libmatroska v0.8.1

Video
ID                               : 1
Format                           : AVC
Format/Info                      : Advanced Video Codec
Format profile                   : High@L4.1
Format settings, CABAC           : Yes
Format settings, ReFrames        : 2 frames
Muxing mode                      : Container profile=Unknown@0.0
Codec ID                         : V_MPEG4/ISO/AVC
Duration                         : 52mn 48s
Bit rate mode                    : Variable
Bit rate                         : 13.2 Mbps
Nominal bit rate                 : 11.4 Mbps
Maximum bit rate                 : 35.0 Mbps
Width                            : 1 920 pixels
Height                           : 1 080 pixels
Display aspect ratio             : 16:9
Frame rate                       : 23.976 fps
Color space                      : YUV
Chroma subsampling               : 4:2:0
Bit depth                        : 8 bits
Scan type                        : Progressive
Bits/(Pixel*Frame)               : 0.266
Stream size                      : 4.88 GiB (95%)
Writing library                  : x264 core 120 r2120 0c7dab9
Encoding settings                : cabac=1 / ref=1 / deblock=1:0:0 / analyse=0x3:0x3 / me=dia / subme=1 / psy=1 / psy_rd=1.00:0.00 / mixed_ref=0 / me_range=16 / chroma_me=1 / trellis=0 / 8x8dct=1 / cqm=0 / deadzone=21,11 / fast_pskip=1 / chroma_qp_offset=0 / threads=3 / sliced_threads=0 / slices=4 / nr=0 / decimate=1 / interlaced=0 / bluray_compat=1 / constrained_intra=0 / bframes=3 / b_pyramid=0 / b_adapt=1 / b_bias=0 / direct=1 / weightb=1 / open_gop=0 / weightp=1 / keyint=24 / keyint_min=1 / scenecut=40 / intra_refresh=0 / rc_lookahead=0 / rc=2pass / mbtree=0 / bitrate=11404 / ratetol=1.0 / qcomp=0.60 / qpmin=0 / qpmax=69 / qpstep=4 / cplxblur=20.0 / qblur=0.5 / vbv_maxrate=35000 / vbv_bufsize=30000 / nal_hrd=vbr / ip_ratio=1.10 / pb_ratio=1.10 / aq=1:1.00
Default                          : No
Forced                           : No

Audio
ID                               : 2
Format                           : AC-3
Format/Info                      : Audio Coding 3
Mode extension                   : CM (complete main)
Codec ID                         : A_AC3
Duration                         : 52mn 48s
Bit rate mode                    : Constant
Bit rate                         : 448 Kbps
Channel(s)                       : 6 channels
Channel positions                : Front: L C R, Side: L R, LFE
Sampling rate                    : 48.0 KHz
Bit depth                        : 16 bits
Compression mode                 : Lossy
Stream size                      : 169 MiB (3%)
Language                         : English
Default                          : Yes
Forced                           : No

Text #1
ID                               : 3
Format                           : VobSub
Muxing mode                      : zlib
Codec ID                         : S_VOBSUB
Codec ID/Info                    : The same subtitle format used on DVDs
Language                         : Dutch
Default                          : Yes
Forced                           : No

Text #2
ID                               : 4
Format                           : VobSub
Muxing mode                      : zlib
Codec ID                         : S_VOBSUB
Codec ID/Info                    : The same subtitle format used on DVDs
Language                         : Spanish
Default                          : No
Forced                           : No

Menu
00:00:00.000                     : en:00:00:00.000
00:13:36.774                     : en:00:13:36.774
00:25:17.516                     : en:00:25:17.516
00:35:20.118                     : en:00:35:20.118
00:45:47.954                     : en:00:45:47.954
00:50:55.010                     : en:00:50:55.010




